<?xml version="1.0" encoding="iso-8859-1"?>
<!-- Generator: Adobe Illustrator 16.0.0, SVG Export Plug-In . SVG Version: 6.00 Build 0)  -->
<!DOCTYPE svg PUBLIC "-//W3C//DTD SVG 1.1//EN" "http://www.w3.org/Graphics/SVG/1.1/DTD/svg11.dtd">
<svg version="1.1" id="Layer_1" xmlns="http://www.w3.org/2000/svg" xmlns:xlink="http://www.w3.org/1999/xlink" x="0px" y="0px"
	 width="209.196px" height="60.001px" viewBox="0 0 209.196 60.001" style="enable-background:new 0 0 209.196 60.001;"
	 xml:space="preserve">
<rect y="0" style="display:none;fill-rule:evenodd;clip-rule:evenodd;" width="209.196" height="60"/>
<g>
	<path style="fill-rule:evenodd;clip-rule:evenodd;fill:#FFFFFF;" d="M11.418,16.297c0.575,0.048,1.15,0.097,1.726,0.145
		c0.406,0.034,0.813,0.065,1.219,0.098c0.582,0.048,1.164,0.097,1.746,0.145c0.406,0.034,0.813,0.065,1.219,0.099
		c0.751,0.062,1.503,0.125,2.254,0.187c0.42,0.035,0.84,0.067,1.26,0.101c0.148,0.012,0.298,0.025,0.446,0.038
		c0.021,0.001,0.045-0.002,0.061,0.007c0.178,0.111,0.382,0.08,0.574,0.097c0.636,0.056,1.273,0.098,1.91,0.146
		c0.609,0.046,1.219,0.096,1.828,0.143c0.453,0.035,0.907,0.067,1.361,0.103c0.46,0.036,0.921,0.073,1.381,0.11
		c0.034,0.002,0.067,0.009,0.102,0.009c0.442,0,0.88,0.065,1.32,0.091c0.48,0.028,0.96,0.078,1.44,0.119
		c0.011,0.001,0.026,0.009,0.031,0.018c0.01,0.021-0.001,0.037-0.02,0.049c-0.207,0.131-0.413,0.263-0.62,0.393
		c-1.595,1.011-3.19,2.021-4.786,3.031c-2.215,1.403-4.43,2.806-6.644,4.211c-0.118,0.075-0.243,0.118-0.375,0.15
		c-1.855,0.448-3.71,0.897-5.564,1.346c-1.202,0.29-2.404,0.577-3.604,0.873c-0.132,0.033-0.23,0.011-0.342-0.057
		c-3.06-1.859-6.12-3.716-9.181-5.573c-0.023-0.014-0.047-0.027-0.07-0.042c-0.101-0.064-0.102-0.064-0.076-0.179
		c0.145-0.656,0.29-1.312,0.436-1.968c0.283-1.279,0.567-2.557,0.852-3.836c0.056-0.252,0.11-0.504,0.168-0.755
		c0.021-0.097,0.045-0.113,0.141-0.106c0.508,0.041,1.016,0.083,1.522,0.125c0.427,0.035,0.854,0.072,1.279,0.108
		c0.766,0.063,1.53,0.127,2.295,0.19c0.568,0.046,1.138,0.091,1.706,0.138c0.582,0.048,1.164,0.097,1.746,0.145
		C10.578,16.231,10.998,16.265,11.418,16.297C11.418,16.298,11.418,16.298,11.418,16.297z"/>
	<path style="fill-rule:evenodd;clip-rule:evenodd;fill:#FFFFFF;" d="M37.61,46.055c0.018,0.536,0.021,1.073,0.056,1.608
		c0.03,0.475,0.016,0.951,0.06,1.425c0.002,0.026,0.003,0.054,0.004,0.081c0.018,0.522,0.032,1.046,0.052,1.567
		c0.02,0.523,0.043,1.045,0.065,1.567c0.002,0.041,0.005,0.081,0.006,0.122c0.017,0.522,0.031,1.045,0.051,1.568
		c0.02,0.515,0.043,1.03,0.064,1.546c0.002,0.041,0.005,0.082,0.007,0.122c0.017,0.522,0.033,1.046,0.051,1.568
		c0.015,0.414,0.049,0.827,0.044,1.241c-0.001,0.041,0.002,0.082,0.002,0.123c0.001,0.054-0.021,0.089-0.078,0.1
		c-0.18,0.036-0.359,0.074-0.539,0.109c-1.8,0.352-3.599,0.702-5.398,1.054c-0.213,0.041-0.427,0.083-0.64,0.124
		c-0.04,0.008-0.081,0.014-0.121,0.019c-0.046,0.005-0.078-0.017-0.099-0.057c-0.021-0.043-0.041-0.086-0.061-0.129
		c-0.92-1.983-1.84-3.968-2.759-5.951c-1.236-2.668-2.472-5.336-3.707-8.004c-0.098-0.209-0.109-0.179,0.059-0.344
		c1.407-1.378,2.815-2.756,4.224-4.134c0.587-0.575,1.173-1.151,1.76-1.728c1.363-1.336,2.727-2.672,4.091-4.007
		c0.718-0.703,1.438-1.406,2.155-2.109c0.029-0.028,0.058-0.058,0.089-0.084c0.014-0.012,0.035-0.024,0.051-0.023
		c0.038,0.005,0.03,0.041,0.031,0.064c0.014,0.333,0.036,0.665,0.043,0.997c0.011,0.517,0.04,1.031,0.062,1.547
		c0.002,0.048,0.006,0.096,0.008,0.143c0.017,0.522,0.031,1.046,0.051,1.568s0.043,1.045,0.065,1.566
		c0.001,0.034,0.004,0.068,0.005,0.103c0.018,0.522,0.032,1.045,0.052,1.567c0.02,0.529,0.044,1.059,0.066,1.587
		c0.001,0.034,0.004,0.068,0.005,0.103c0.017,0.522,0.031,1.045,0.051,1.567c0.021,0.557,0.047,1.112,0.071,1.669
		c0.002,0.047,0.004,0.095,0.006,0.143C37.612,46.055,37.611,46.055,37.61,46.055z"/>
	<path style="fill-rule:evenodd;clip-rule:evenodd;fill:#FFFFFF;" d="M38.372,3.85c-0.027,0.094-0.085,0.145-0.13,0.204
		C37.27,5.327,36.295,6.6,35.32,7.873c-1.099,1.434-2.197,2.869-3.296,4.303c-1.193,1.559-2.388,3.117-3.582,4.675
		c-0.008,0.011-0.018,0.021-0.024,0.032c-0.063,0.12-0.157,0.141-0.289,0.128c-0.419-0.042-0.839-0.069-1.259-0.101
		c-0.67-0.052-1.341-0.104-2.011-0.155c-0.379-0.029-0.758-0.058-1.138-0.086c-0.568-0.043-1.138-0.088-1.706-0.126
		c-0.104-0.007-0.154-0.051-0.196-0.142c-0.315-0.677-0.635-1.352-0.953-2.028c-0.222-0.474-0.439-0.949-0.668-1.419
		c-0.055-0.114-0.057-0.209-0.017-0.327c0.861-2.561,1.719-5.122,2.576-7.684c0.525-1.57,1.05-3.141,1.575-4.712
		c0.08-0.237,0.055-0.224,0.295-0.158c1.873,0.514,3.746,1.028,5.618,1.542c1.645,0.451,3.288,0.902,4.932,1.353
		c1.009,0.276,2.017,0.553,3.025,0.829C38.255,3.81,38.306,3.829,38.372,3.85z"/>
	<path style="fill-rule:evenodd;clip-rule:evenodd;fill:#FFFFFF;" d="M2,14.811c0.001-0.066,0.059-0.101,0.097-0.144
		c0.262-0.294,0.526-0.586,0.79-0.879c1.923-2.134,3.846-4.269,5.769-6.403c1.228-1.362,2.455-2.725,3.682-4.087
		c0.527-0.585,1.054-1.171,1.581-1.757c0.019-0.02,0.036-0.041,0.055-0.06c0.068-0.072,0.088-0.07,0.129,0.015
		c0.082,0.171,0.162,0.344,0.243,0.516c0.447,0.959,0.895,1.919,1.342,2.879c0.986,2.116,1.973,4.232,2.96,6.349
		c0.215,0.461,0.43,0.923,0.646,1.384c0.547,1.167,1.095,2.335,1.643,3.502c0.008,0.019,0.016,0.037,0.024,0.056
		c0.107,0.223,0.104,0.227-0.147,0.205c-0.818-0.072-1.638-0.137-2.456-0.204c-0.568-0.046-1.138-0.089-1.706-0.136
		c-0.568-0.047-1.136-0.098-1.704-0.146c-0.393-0.033-0.785-0.061-1.178-0.093c-0.42-0.034-0.839-0.072-1.259-0.106
		c-0.393-0.032-0.785-0.063-1.177-0.095c-0.42-0.035-0.839-0.072-1.259-0.106c-0.393-0.032-0.784-0.063-1.177-0.095
		c-0.203-0.016-0.406-0.031-0.609-0.048c-0.575-0.049-1.149-0.1-1.725-0.149c-0.656-0.055-1.313-0.109-1.969-0.164
		c-0.649-0.054-1.299-0.108-1.948-0.162c-0.189-0.016-0.379-0.031-0.568-0.046C2.051,14.833,2.023,14.835,2,14.811z"/>
	<path style="fill-rule:evenodd;clip-rule:evenodd;fill:#FFFFFF;" d="M41.286,15.485c-0.133,0.213-0.265,0.427-0.4,0.638
		c-1.066,1.664-2.134,3.328-3.201,4.992c-1.971,3.07-3.939,6.141-5.909,9.21c-1.975,3.076-3.948,6.152-5.922,9.228
		c-0.043,0.067-0.081,0.141-0.146,0.208c-0.063-0.042-0.095-0.103-0.133-0.154c-0.474-0.655-0.946-1.311-1.42-1.966
		c-1.221-1.69-2.442-3.381-3.662-5.072c-0.193-0.268-0.204-0.195,0.048-0.4c3.149-2.557,6.298-5.112,9.447-7.668
		c3.577-2.902,7.154-5.805,10.73-8.707c0.169-0.137,0.34-0.271,0.51-0.406c0.023-0.004,0.041-0.017,0.051-0.039h-0.001
		c0.073-0.002,0.072,0.034,0.042,0.084v0.001C41.306,15.45,41.292,15.464,41.286,15.485z"/>
	<path style="fill-rule:evenodd;clip-rule:evenodd;fill:#FFFFFF;" d="M24.934,44.214c0.28-0.943,0.562-1.887,0.842-2.83
		c0.065-0.221,0.134-0.441,0.195-0.664c0.033-0.12,0.091-0.226,0.157-0.329c0.764-1.188,1.527-2.377,2.29-3.566
		c2.288-3.567,4.577-7.135,6.866-10.702c2.189-3.413,4.379-6.826,6.568-10.239c0.146-0.229,0.294-0.458,0.441-0.686
		c0.024-0.039,0.045-0.083,0.089-0.106c0.043,0.029,0.016,0.062,0.012,0.09c-0.087,0.652-0.174,1.305-0.264,1.958
		c-0.102,0.739-0.207,1.479-0.31,2.218c-0.074,0.545-0.145,1.09-0.22,1.635c-0.074,0.538-0.152,1.075-0.227,1.613
		c-0.062,0.444-0.118,0.888-0.179,1.332c-0.062,0.444-0.126,0.887-0.188,1.331c-0.061,0.443-0.118,0.888-0.179,1.332
		c-0.061,0.443-0.125,0.887-0.187,1.331c-0.06,0.438-0.117,0.874-0.178,1.312c-0.061,0.444-0.123,0.888-0.185,1.331
		c-0.047,0.343-0.094,0.687-0.141,1.029c-0.063,0.457-0.126,0.914-0.189,1.371c-0.021,0.148-0.038,0.297-0.059,0.444
		c-0.013,0.088-0.042,0.102-0.125,0.059c-0.072-0.037-0.143-0.078-0.214-0.119c-0.661-0.376-1.322-0.753-1.983-1.129
		c-0.035-0.021-0.07-0.041-0.105-0.062c-0.04-0.022-0.078-0.02-0.112,0.012c-0.034,0.032-0.068,0.065-0.103,0.099
		c-0.776,0.761-1.553,1.521-2.329,2.282c-1.358,1.331-2.718,2.662-4.076,3.993c-1.311,1.283-2.62,2.567-3.931,3.851
		c-0.646,0.632-1.292,1.263-1.938,1.895C24.9,44.3,24.909,44.261,24.934,44.214z"/>
	<path style="fill-rule:evenodd;clip-rule:evenodd;fill:#FFFFFF;" d="M55.757,17.894c0.971,0.014,1.942,0.028,2.913,0.043
		c0.577,0.009,1.154,0.021,1.731,0.032c0.048,0,0.096,0,0.143,0.003c0.053,0.003,0.073,0.039,0.047,0.081
		c-0.025,0.041-0.054,0.079-0.081,0.118c-2.31,3.291-4.619,6.582-6.93,9.873c-1.439,2.051-2.88,4.103-4.321,6.153
		c-0.055,0.077-0.085,0.184-0.194,0.215c-0.056-0.079-0.063-0.175-0.089-0.265c-0.778-2.791-1.556-5.583-2.334-8.374
		c-0.067-0.242-0.129-0.485-0.203-0.725c-0.034-0.114-0.018-0.205,0.046-0.306c0.573-0.899,1.141-1.802,1.711-2.703
		c0.849-1.344,1.697-2.688,2.546-4.031c0.014-0.023,0.032-0.044,0.043-0.069c0.047-0.11,0.131-0.134,0.246-0.132
		c1.019,0.022,2.037,0.04,3.056,0.058c0.557,0.01,1.114,0.017,1.671,0.026C55.757,17.892,55.757,17.893,55.757,17.894z"/>
	<path style="fill-rule:evenodd;clip-rule:evenodd;fill:#FFFFFF;" d="M45.914,25.706c0.088,0.31,0.17,0.596,0.249,0.883
		c0.726,2.608,1.45,5.215,2.175,7.823c0.137,0.49,0.257,0.985,0.413,1.47c0.303,0.937,0.542,1.89,0.809,2.837
		c0.434,1.534,0.857,3.071,1.285,4.607c0.01,0.032,0.017,0.066,0.025,0.099c0.018,0.056-0.008,0.091-0.055,0.115
		c-0.036,0.02-0.072,0.038-0.108,0.058c-1.424,0.735-2.849,1.47-4.272,2.205c-0.108,0.057-0.217,0.113-0.325,0.169
		c-0.045,0.023-0.079,0.013-0.103-0.03c-0.024-0.048-0.047-0.098-0.069-0.147c-0.598-1.294-1.195-2.589-1.793-3.883
		c-1.129-2.447-2.258-4.895-3.387-7.342c-0.054-0.118-0.104-0.236-0.163-0.352c-0.031-0.063-0.021-0.113,0.016-0.17
		c0.122-0.188,0.239-0.38,0.359-0.568c1.597-2.526,3.193-5.052,4.791-7.578C45.8,25.841,45.827,25.77,45.914,25.706z"/>
	<path style="fill-rule:evenodd;clip-rule:evenodd;fill:#FFFFFF;" d="M32.16,17.323c-0.671-0.056-1.294-0.109-1.916-0.161
		c-0.244-0.02-0.487-0.037-0.731-0.057c-0.095-0.008-0.189-0.018-0.283-0.03c-0.053-0.007-0.064-0.04-0.031-0.086
		c0.035-0.05,0.073-0.098,0.11-0.146c1.069-1.397,2.139-2.794,3.209-4.19c0.962-1.257,1.925-2.513,2.888-3.769
		c1.214-1.585,2.428-3.171,3.642-4.756c0.005-0.005,0.01-0.01,0.013-0.016c0.056-0.107,0.147-0.129,0.258-0.115
		c0.074,0.009,0.148,0.011,0.224,0.014c0.679,0.022,1.358,0.043,2.037,0.065c0.699,0.024,1.397,0.05,2.097,0.075
		c0.027,0.001,0.055,0.001,0.082,0.004c0.052,0.006,0.072,0.029,0.068,0.08c-0.006,0.068-0.012,0.135-0.021,0.203
		c-0.075,0.572-0.152,1.144-0.228,1.716c-0.061,0.471-0.118,0.943-0.179,1.414c-0.061,0.464-0.126,0.928-0.187,1.392
		c-0.048,0.363-0.09,0.727-0.138,1.09c-0.047,0.356-0.1,0.711-0.147,1.067c-0.033,0.255-0.061,0.512-0.095,0.767
		c-0.033,0.255-0.072,0.51-0.107,0.765c-0.02,0.147-0.044,0.295-0.052,0.444c-0.006,0.126-0.06,0.19-0.178,0.237
		c-0.822,0.32-1.643,0.647-2.464,0.972c-2.128,0.841-4.256,1.683-6.385,2.524c-0.354,0.14-0.709,0.274-1.061,0.42
		C32.431,17.309,32.279,17.356,32.16,17.323z"/>
	<path style="fill-rule:evenodd;clip-rule:evenodd;fill:#FFFFFF;" d="M38.276,45.526c-0.021-0.59-0.04-1.181-0.062-1.771
		c-0.026-0.739-0.056-1.479-0.083-2.219c-0.027-0.713-0.054-1.425-0.081-2.138c-0.027-0.726-0.054-1.452-0.081-2.179
		c-0.027-0.719-0.055-1.438-0.082-2.157c-0.021-0.55-0.045-1.1-0.066-1.648c-0.002-0.055-0.003-0.109-0.003-0.164
		c0-0.041,0.03-0.063,0.064-0.046c0.043,0.021,0.084,0.044,0.126,0.067c0.543,0.31,1.086,0.618,1.628,0.928
		c0.256,0.146,0.206,0.084,0.294,0.356c0.491,1.532,0.979,3.064,1.469,4.597c0.582,1.822,1.165,3.646,1.747,5.469
		c0.545,1.706,1.089,3.413,1.634,5.12c0.061,0.188,0.061,0.188-0.061,0.348c-1.768,2.333-3.535,4.667-5.303,7
		c-0.172,0.228-0.345,0.455-0.518,0.682c-0.028,0.038-0.059,0.075-0.09,0.11c-0.007,0.008-0.025,0.012-0.035,0.009
		s-0.022-0.017-0.023-0.027c-0.01-0.135-0.022-0.271-0.026-0.405c-0.021-0.591-0.039-1.182-0.061-1.771
		c-0.026-0.74-0.056-1.479-0.083-2.22c-0.027-0.712-0.054-1.425-0.081-2.138c-0.027-0.739-0.056-1.479-0.083-2.219
		c-0.026-0.706-0.053-1.411-0.08-2.117C38.318,46.504,38.297,46.015,38.276,45.526z"/>
	<path style="fill-rule:evenodd;clip-rule:evenodd;fill:#FFFFFF;" d="M40.721,32.534c1.067-7.831,2.134-15.646,3.2-23.461
		c0-0.004,0.011-0.007,0.019-0.012c0.063,0.031,0.093,0.096,0.132,0.148c1.55,2.082,3.098,4.164,4.646,6.246
		c0.467,0.626,0.934,1.252,1.399,1.879c0.028,0.038,0.056,0.077,0.086,0.114c0.034,0.043,0.033,0.084,0.005,0.13
		c-0.128,0.201-0.254,0.402-0.381,0.603c-2.071,3.278-4.144,6.556-6.215,9.834c-0.914,1.447-1.828,2.894-2.743,4.34
		C40.83,32.417,40.804,32.489,40.721,32.534z"/>
	<path style="fill-rule:evenodd;clip-rule:evenodd;fill:#FFFFFF;" d="M19.693,11.824c-0.048-0.026-0.054-0.077-0.073-0.119
		c-1.42-3.046-2.84-6.092-4.259-9.138c-0.204-0.437-0.407-0.874-0.611-1.311c-0.015-0.03-0.029-0.061-0.043-0.092
		c-0.032-0.076-0.021-0.101,0.055-0.111c0.101-0.014,0.202-0.025,0.303-0.038c1.012-0.121,2.022-0.242,3.034-0.362
		c0.856-0.102,1.713-0.202,2.569-0.303c0.95-0.113,1.9-0.228,2.852-0.341C23.553,0.005,23.587-0.001,23.62,0
		c0.031,0.002,0.049,0.025,0.039,0.056c-0.064,0.2-0.131,0.399-0.197,0.599c-0.907,2.707-1.813,5.414-2.721,8.121
		c-0.318,0.952-0.636,1.904-0.956,2.855C19.763,11.698,19.762,11.778,19.693,11.824z"/>
	<path style="fill-rule:evenodd;clip-rule:evenodd;fill:#FFFFFF;" d="M21.995,29.94c0.153-0.232,0.313-0.459,0.5-0.667
		c1.481-1.654,2.961-3.308,4.441-4.962c0.842-0.941,1.685-1.881,2.526-2.822c1.01-1.128,2.02-2.256,3.028-3.385
		c0.074-0.083,0.156-0.143,0.262-0.185c2.576-1.016,5.151-2.034,7.727-3.052c0.076-0.03,0.151-0.059,0.228-0.088
		c0.025-0.019,0.062-0.012,0.086-0.035l0,0c0.045-0.032,0.076-0.034,0.075,0.035l0,0c-0.009,0.018-0.023,0.029-0.042,0.035
		c-1.219,0.988-2.438,1.977-3.656,2.965c-1.709,1.386-3.419,2.773-5.127,4.16c-1.609,1.306-3.218,2.611-4.826,3.917
		c-1.672,1.357-3.344,2.714-5.017,4.071c-0.025,0.021-0.055,0.038-0.082,0.058c-0.033,0.037-0.087,0.047-0.114,0.091v0.001
		c-0.069-0.002-0.075-0.035-0.044-0.088v-0.001C21.974,29.974,21.988,29.96,21.995,29.94z"/>
	<path style="fill-rule:evenodd;clip-rule:evenodd;fill:#FFFFFF;" d="M30.235,19.595c-0.225,0.254-0.448,0.509-0.675,0.762
		c-1.11,1.241-2.221,2.48-3.331,3.72c-1.305,1.458-2.608,2.917-3.913,4.375c-0.067,0.076-0.136,0.15-0.214,0.236
		c-0.218-0.202-0.398-0.422-0.591-0.629c-0.198-0.214-0.396-0.431-0.593-0.646c-0.192-0.21-0.387-0.419-0.576-0.632
		c-0.189-0.211-0.393-0.411-0.566-0.634c0.052-0.072,0.122-0.101,0.185-0.14c1.371-0.87,2.743-1.738,4.114-2.607
		c1.997-1.265,3.994-2.53,5.991-3.795c0.028-0.018,0.059-0.034,0.088-0.051C30.205,19.521,30.237,19.526,30.235,19.595z"/>
	<path style="fill-rule:evenodd;clip-rule:evenodd;fill:#FFFFFF;" d="M42.506,40.055c0.152,0.325,0.307,0.649,0.457,0.976
		c0.552,1.193,1.103,2.387,1.653,3.581c0.268,0.578,0.531,1.158,0.803,1.734c0.061,0.13,0.071,0.253,0.045,0.392
		c-0.095,0.5-0.181,1-0.271,1.5c-0.008,0.046-0.023,0.092-0.036,0.137c-0.047,0.027-0.062-0.024-0.092-0.039
		c-0.108-0.256-0.179-0.525-0.263-0.789c-0.693-2.162-1.383-4.325-2.073-6.488c-0.081-0.252-0.16-0.504-0.24-0.756
		c-0.012-0.039-0.02-0.079-0.029-0.118C42.447,40.131,42.408,40.067,42.506,40.055z"/>
	<path style="fill-rule:evenodd;clip-rule:evenodd;fill:#FFFFFF;" d="M42.506,40.055c-0.054,0.028-0.036,0.084-0.047,0.129
		c-0.07-0.11-0.096-0.237-0.123-0.362c-0.01-0.038-0.04-0.084,0.036-0.087c0.008,0.01,0.012,0.021,0.011,0.033
		c0.022,0.024,0.013,0.064,0.042,0.086C42.458,39.917,42.503,39.978,42.506,40.055z"/>
	<path style="fill-rule:evenodd;clip-rule:evenodd;fill:#FFFFFF;" d="M42.29,39.696c-0.046-0.054-0.049-0.123-0.068-0.188
		c-0.003-0.009,0.006-0.027,0.015-0.034c0.006-0.004,0.027,0.003,0.032,0.012c0.034,0.05,0.07,0.1,0.069,0.165
		C42.326,39.67,42.319,39.695,42.29,39.696z"/>
	<path style="fill-rule:evenodd;clip-rule:evenodd;fill:#FFFFFF;" d="M30.269,19.464c0.022-0.035,0.055-0.059,0.093-0.074
		c0.017-0.007,0.042-0.014,0.054-0.006c0.018,0.013,0.007,0.036-0.007,0.05c-0.027,0.029-0.057,0.056-0.085,0.083
		C30.293,19.513,30.274,19.495,30.269,19.464z"/>
	<path style="fill-rule:evenodd;clip-rule:evenodd;fill:#FFFFFF;" d="M40.868,14.779c-0.016-0.031-0.049-0.026-0.075-0.035
		c0.032-0.053,0.093-0.05,0.142-0.069c0.008-0.003,0.029,0.008,0.03,0.014c0,0.012-0.006,0.027-0.014,0.037
		C40.929,14.75,40.905,14.776,40.868,14.779z"/>
	<path style="fill-rule:evenodd;clip-rule:evenodd;fill:#FFFFFF;" d="M30.269,19.464c0.019,0.018,0.037,0.036,0.055,0.054
		c-0.024,0.03-0.046,0.065-0.088,0.077c-0.017-0.034-0.049-0.038-0.081-0.042C30.178,19.505,30.229,19.493,30.269,19.464z"/>
	<path style="fill-rule:evenodd;clip-rule:evenodd;fill:#FFFFFF;" d="M21.96,29.989c0.002,0.035,0.009,0.068,0.044,0.087
		c-0.014,0.04-0.048,0.06-0.08,0.079c-0.046,0.009-0.064-0.01-0.056-0.056C21.895,30.059,21.912,30.012,21.96,29.989z"/>
	<path style="fill-rule:evenodd;clip-rule:evenodd;fill:#FFFFFF;" d="M45.064,48.335c0.03,0.013,0.062,0.026,0.092,0.039
		c0.009,0.045,0.008,0.089-0.021,0.13C45.069,48.465,45.068,48.399,45.064,48.335z"/>
	<path style="fill-rule:evenodd;clip-rule:evenodd;fill:#FFFFFF;" d="M41.449,15.273c-0.025,0.031-0.051,0.062-0.076,0.092
		c-0.028-0.01-0.047-0.03-0.059-0.058c0.028-0.029,0.058-0.058,0.086-0.086C41.438,15.218,41.458,15.232,41.449,15.273z"/>
	<path style="fill-rule:evenodd;clip-rule:evenodd;fill:#FFFFFF;" d="M21.868,30.1c0.019,0.019,0.037,0.037,0.056,0.056
		c-0.028,0.027-0.057,0.056-0.085,0.083c-0.04,0.007-0.057-0.01-0.049-0.05C21.815,30.159,21.842,30.13,21.868,30.1z"/>
	<path style="fill-rule:evenodd;clip-rule:evenodd;fill:#FFFFFF;" d="M21.79,30.188c0.016,0.017,0.032,0.033,0.049,0.05
		c-0.016,0.028-0.036,0.052-0.068,0.062c-0.01,0.003-0.025-0.002-0.033-0.009c-0.007-0.007-0.012-0.023-0.009-0.033
		C21.738,30.227,21.761,30.205,21.79,30.188z"/>
	<path style="fill-rule:evenodd;clip-rule:evenodd;fill:#FFFFFF;" d="M41.449,15.273c-0.016-0.018-0.032-0.035-0.049-0.052
		c0.018-0.018,0.033-0.038,0.053-0.053c0.009-0.007,0.026-0.009,0.035-0.005c0.007,0.004,0.013,0.022,0.01,0.032
		C41.491,15.226,41.479,15.255,41.449,15.273z"/>
	<path style="fill-rule:evenodd;clip-rule:evenodd;fill:#FFFFFF;" d="M42.29,39.696c0.017-0.015,0.032-0.03,0.048-0.045
		c0.012,0.027,0.022,0.056,0.034,0.083c-0.029,0.021-0.031,0.055-0.036,0.087C42.3,39.787,42.297,39.741,42.29,39.696z"/>
	<path style="fill-rule:evenodd;clip-rule:evenodd;fill:#FFFFFF;" d="M24.934,44.214c0.01,0.029,0.008,0.065,0.042,0.083
		c-0.011,0.016-0.018,0.036-0.032,0.046c-0.027,0.02-0.051,0.006-0.052-0.025C24.89,44.276,24.897,44.239,24.934,44.214z"/>
	<path style="fill-rule:evenodd;clip-rule:evenodd;fill:#FFFFFF;" d="M41.314,15.308c0.02,0.019,0.039,0.039,0.059,0.058
		c-0.01,0.029-0.022,0.056-0.054,0.068c-0.002-0.034-0.01-0.065-0.042-0.084C41.29,15.335,41.302,15.321,41.314,15.308z"/>
	<path style="fill-rule:evenodd;clip-rule:evenodd;fill:#FFFFFF;" d="M22.004,30.076c0.014-0.061,0.055-0.087,0.114-0.091
		C22.096,30.035,22.057,30.065,22.004,30.076z"/>
	<path style="fill-rule:evenodd;clip-rule:evenodd;fill:#FFFFFF;" d="M40.793,14.744c-0.02,0.034-0.05,0.042-0.086,0.035
		C40.727,14.746,40.757,14.738,40.793,14.744z"/>
	<path style="fill-rule:evenodd;clip-rule:evenodd;fill:#FFFFFF;" d="M42.425,39.854c-0.037-0.019-0.044-0.05-0.042-0.086
		C42.409,39.79,42.424,39.818,42.425,39.854z"/>
	<path style="fill-rule:evenodd;clip-rule:evenodd;fill:#FFFFFF;" d="M40.826,14.814c0.005-0.023,0.02-0.034,0.042-0.035
		C40.863,14.802,40.85,14.814,40.826,14.814z"/>
	<path style="fill-rule:evenodd;clip-rule:evenodd;fill:#FFFFFF;" d="M41.286,15.485c-0.001-0.025,0.011-0.041,0.033-0.051
		C41.319,15.458,41.309,15.476,41.286,15.485z"/>
	<path style="fill-rule:evenodd;clip-rule:evenodd;fill:#FFFFFF;" d="M21.995,29.94c0,0.024-0.013,0.04-0.035,0.048
		C21.961,29.964,21.973,29.948,21.995,29.94z"/>
	<path style="fill-rule:evenodd;clip-rule:evenodd;fill:#FFFFFF;" d="M41.278,15.349c-0.008,0.025-0.023,0.038-0.051,0.039
		C41.236,15.364,41.253,15.352,41.278,15.349z"/>
</g>
<g>
	<path style="fill:#FFFFFF;" d="M77.771,13.074c1.041,0,1.938,0.076,2.687,0.229c0.749,0.153,1.276,0.292,1.581,0.419l-0.647,3.048
		c-0.305-0.152-0.737-0.298-1.296-0.438c-0.559-0.139-1.244-0.209-2.058-0.209c-1.651,0-2.808,0.451-3.468,1.353
		c-0.66,0.902-0.99,2.115-0.99,3.639v1.715H81.2v2.972h-7.621v16.843h-3.544V21.038c0-2.54,0.622-4.502,1.867-5.888
		C73.146,13.766,75.103,13.074,77.771,13.074z"/>
	<path style="fill:#FFFFFF;" d="M100.52,42.073c-0.813,0.203-1.886,0.419-3.22,0.647s-2.877,0.343-4.63,0.343
		c-1.524,0-2.808-0.223-3.849-0.667c-1.042-0.444-1.881-1.072-2.516-1.886c-0.635-0.813-1.093-1.772-1.371-2.877
		c-0.28-1.105-0.42-2.331-0.42-3.678V22.829h3.544v10.365c0,2.414,0.382,4.141,1.144,5.182c0.762,1.043,2.044,1.563,3.849,1.563
		c0.381,0,0.774-0.012,1.182-0.038c0.405-0.024,0.787-0.057,1.143-0.095s0.68-0.076,0.972-0.114s0.502-0.082,0.629-0.134V22.829
		h3.544V42.073z"/>
	<path style="fill:#FFFFFF;" d="M106.616,23.401c0.813-0.203,1.893-0.419,3.239-0.648c1.346-0.229,2.896-0.343,4.648-0.343
		c1.575,0,2.884,0.223,3.925,0.667c1.042,0.445,1.874,1.067,2.496,1.867c0.623,0.8,1.061,1.76,1.315,2.877
		c0.253,1.118,0.381,2.35,0.381,3.696v11.127h-3.544V32.279c0-1.22-0.083-2.261-0.248-3.125c-0.165-0.863-0.438-1.562-0.819-2.095
		c-0.381-0.534-0.89-0.92-1.523-1.163c-0.636-0.241-1.424-0.362-2.363-0.362c-0.381,0-0.775,0.013-1.181,0.038
		c-0.407,0.025-0.795,0.057-1.163,0.095s-0.698,0.083-0.99,0.133c-0.293,0.051-0.502,0.089-0.629,0.114v16.729h-3.544V23.401z"/>
	<path style="fill:#FFFFFF;" d="M141.293,13.684l3.544-0.61v29c-0.813,0.229-1.855,0.457-3.125,0.686
		c-1.271,0.229-2.731,0.343-4.383,0.343c-1.523,0-2.896-0.241-4.115-0.724c-1.219-0.482-2.262-1.168-3.125-2.058
		s-1.53-1.976-2-3.259c-0.471-1.282-0.705-2.725-0.705-4.324c0-1.524,0.196-2.922,0.591-4.192c0.394-1.27,0.972-2.362,1.733-3.277
		c0.763-0.915,1.696-1.625,2.801-2.134c1.105-0.508,2.369-0.762,3.792-0.762c1.144,0,2.153,0.152,3.029,0.457
		c0.877,0.305,1.53,0.597,1.963,0.876V13.684z M141.293,27.021c-0.433-0.355-1.055-0.699-1.867-1.029
		c-0.813-0.33-1.703-0.495-2.668-0.495c-1.016,0-1.886,0.185-2.61,0.552c-0.724,0.369-1.314,0.877-1.771,1.524
		c-0.458,0.647-0.788,1.417-0.991,2.306c-0.204,0.89-0.305,1.842-0.305,2.858c0,2.312,0.571,4.096,1.715,5.354
		s2.667,1.886,4.573,1.886c0.965,0,1.771-0.044,2.419-0.133c0.648-0.089,1.149-0.185,1.506-0.286V27.021z"/>
	<path style="fill:#FFFFFF;" d="M158.25,22.41c0.305,0,0.653,0.019,1.048,0.058c0.394,0.038,0.781,0.089,1.162,0.152
		c0.381,0.063,0.729,0.127,1.048,0.19c0.317,0.063,0.553,0.121,0.705,0.171l-0.609,3.087c-0.28-0.102-0.743-0.222-1.392-0.362
		c-0.647-0.139-1.479-0.209-2.496-0.209c-0.66,0-1.314,0.07-1.962,0.209c-0.647,0.14-1.073,0.235-1.276,0.286v16.653h-3.544V23.667
		c0.838-0.305,1.88-0.591,3.125-0.857C155.303,22.543,156.7,22.41,158.25,22.41z"/>
	<path style="fill:#FFFFFF;" d="M167.395,19.247c-0.635,0-1.175-0.209-1.619-0.629c-0.445-0.419-0.667-0.984-0.667-1.695
		s0.222-1.277,0.667-1.696c0.444-0.419,0.984-0.629,1.619-0.629s1.175,0.209,1.62,0.629c0.443,0.419,0.666,0.984,0.666,1.696
		s-0.223,1.276-0.666,1.695C168.569,19.038,168.029,19.247,167.395,19.247z M169.186,42.645h-3.544V22.829h3.544V42.645z"/>
	<path style="fill:#FFFFFF;" d="M182.446,31.746c0.763,0.585,1.568,1.309,2.42,2.172c0.851,0.864,1.689,1.798,2.516,2.801
		c0.824,1.004,1.605,2.02,2.343,3.049c0.736,1.028,1.359,1.988,1.867,2.877h-4.153c-0.533-0.889-1.149-1.797-1.849-2.725
		c-0.698-0.927-1.429-1.816-2.19-2.668c-0.763-0.851-1.537-1.632-2.325-2.343c-0.787-0.711-1.537-1.309-2.248-1.791v9.526h-3.544
		V13.684l3.544-0.61v18.063c0.609-0.61,1.282-1.283,2.02-2.02c0.737-0.737,1.461-1.487,2.173-2.249
		c0.71-0.762,1.384-1.492,2.02-2.191c0.635-0.698,1.181-1.314,1.639-1.848h4.153c-0.585,0.635-1.22,1.334-1.905,2.096
		c-0.687,0.762-1.397,1.531-2.134,2.306c-0.737,0.775-1.48,1.55-2.229,2.324C183.812,30.33,183.106,31.06,182.446,31.746z"/>
	<path style="fill:#FFFFFF;" d="M201.575,22.333c1.423,0,2.623,0.185,3.602,0.553c0.978,0.369,1.766,0.89,2.362,1.563
		c0.597,0.673,1.022,1.474,1.276,2.401s0.381,1.949,0.381,3.067v12.385c-0.305,0.051-0.73,0.121-1.276,0.209
		c-0.546,0.09-1.162,0.172-1.848,0.248c-0.687,0.076-1.43,0.146-2.229,0.21c-0.8,0.063-1.595,0.095-2.382,0.095
		c-1.118,0-2.147-0.114-3.087-0.343s-1.752-0.591-2.438-1.086c-0.686-0.496-1.22-1.149-1.601-1.963
		c-0.381-0.813-0.571-1.791-0.571-2.934c0-1.093,0.222-2.032,0.667-2.82c0.444-0.787,1.048-1.422,1.81-1.905
		c0.763-0.482,1.651-0.838,2.668-1.066c1.016-0.229,2.083-0.344,3.2-0.344c0.355,0,0.725,0.02,1.105,0.058s0.743,0.089,1.086,0.152
		s0.642,0.121,0.896,0.171c0.254,0.052,0.432,0.09,0.533,0.114v-0.99c0-0.584-0.063-1.162-0.19-1.733
		c-0.127-0.572-0.355-1.08-0.686-1.524s-0.781-0.801-1.353-1.067s-1.314-0.4-2.229-0.4c-1.169,0-2.191,0.083-3.067,0.248
		c-0.877,0.166-1.531,0.337-1.963,0.515l-0.419-2.935c0.457-0.203,1.22-0.4,2.286-0.59C199.175,22.429,200.33,22.333,201.575,22.333
		z M201.88,40.092c0.839,0,1.582-0.02,2.229-0.058s1.188-0.107,1.619-0.21v-5.906c-0.254-0.127-0.666-0.234-1.238-0.323
		c-0.571-0.089-1.264-0.134-2.076-0.134c-0.534,0-1.1,0.038-1.696,0.114s-1.143,0.235-1.639,0.477
		c-0.495,0.241-0.908,0.571-1.238,0.99s-0.495,0.972-0.495,1.658c0,1.271,0.406,2.152,1.22,2.648
		C199.378,39.844,200.482,40.092,201.88,40.092z"/>
</g>
</svg>
